# xmcd
#
# Track frame offsets: 
#        150
#        20422
#        37979
#        55896
#        78535
#        97047
#        123194
#        149304
#        168601
#        197315
#        221767
#        243769
#        261559
#
# Disc length: 3800 seconds
#
# Revision: 0
# Processed by: cddbd v1.5.2PL0 Copyright (c) Steve Scherf et al.
# Submitted via: ExactAudioCopy v0.99pb4
#
DISCID=b40ed60d
DTITLE=Suede - Sci-Fi Lullabies [CD2)
DYEAR=1997
DGENRE=Rock
TTITLE0=Every Monday Morning Comes
TTITLE1=Have You Ever Been This Low?
TTITLE2=Another No One
TTITLE3=Young Men
TTITLE4=The Sound Of The Streets
TTITLE5=Money
TTITLE6=W.S.D.
TTITLE7=This Time
TTITLE8=Jumble Sale Mums
TTITLE9=These Are The Sad Songs
TTITLE10=Sadie
TTITLE11=Graffiti Women
TTITLE12=Duchess
EXTD=
EXTT0=
EXTT1=
EXTT2=
EXTT3=
EXTT4=
EXTT5=
EXTT6=
EXTT7=
EXTT8=
EXTT9=
EXTT10=
EXTT11=
EXTT12=
PLAYORDER=
